HIERARCHY
ROOT Hips
{
	OFFSET 0.000000 89.005402 0.000000
	CHANNELS 6 Xposition Yposition Zposition Xrotation Yrotation Zrotation
	JOINT Spine
	{
		OFFSET 0.116900 10.681000 0.373400
		CHANNELS 3 Xrotation Yrotation Zrotation
		JOINT Spine1
		{
			OFFSET 0.000000 13.840401 0.053500
			CHANNELS 3 Xrotation Yrotation Zrotation
			JOINT Spine2
			{
				OFFSET 0.000000 14.712700 -0.366200
				CHANNELS 3 Xrotation Yrotation Zrotation
				JOINT Neck
				{
					OFFSET 0.000000 35.415497 -3.314200
					CHANNELS 3 Xrotation Yrotation Zrotation
					JOINT Head
					{
						OFFSET 0.000000 16.899200 1.218300
						CHANNELS 3 Xrotation Yrotation Zrotation
						JOINT HeadTop_End
						{
							OFFSET 0.000000 22.206207 2.192500
							CHANNELS 3 Xrotation Yrotation Zrotation
							End Site
							{
								OFFSET 0.000000 22.314178 0.000000
							}
						}
					}
				}
				JOINT LeftShoulder
				{
					OFFSET 12.896400 26.716293 -4.548400
					CHANNELS 3 Xrotation Yrotation Zrotation
					JOINT LeftArm
					{
						OFFSET 19.027000 -4.857010 -1.718400
						CHANNELS 3 Xrotation Yrotation Zrotation
						JOINT LeftForeArm
						{
							OFFSET 24.179897 0.000000 0.000000
							CHANNELS 3 Xrotation Yrotation Zrotation
							JOINT LeftHand
							{
								OFFSET 27.156403 0.000000 0.000000
								CHANNELS 3 Xrotation Yrotation Zrotation
								JOINT LeftHandIndex1
								{
									OFFSET 16.441200 0.000000 0.000000
									CHANNELS 3 Xrotation Yrotation Zrotation
									JOINT LeftHandIndex2
									{
										OFFSET 4.821899 0.000000 0.000000
										CHANNELS 3 Xrotation Yrotation Zrotation
										JOINT LeftHandIndex3
										{
											OFFSET 6.386497 0.000000 0.000000
											CHANNELS 3 Xrotation Yrotation Zrotation
											JOINT LeftHandIndex4
											{
												OFFSET 5.188988 0.000000 0.000000
												CHANNELS 3 Xrotation Yrotation Zrotation
												End Site
												{
													OFFSET -0.178703 5.185913 0.000177
												}
											}
										}
									}
								}
								JOINT LeftHandThumb1
								{
									OFFSET 6.534897 -5.032593 5.900300
									CHANNELS 3 Xrotation Yrotation Zrotation
									JOINT LeftHandThumb2
									{
										OFFSET 3.818176 -2.204422 2.204423
										CHANNELS 3 Xrotation Yrotation Zrotation
										JOINT LeftHandThumb3
										{
											OFFSET 3.252098 -1.877594 1.877601
											CHANNELS 3 Xrotation Yrotation Zrotation
											JOINT LeftHandThumb4
											{
												OFFSET 5.251778 -3.032120 3.032117
												CHANNELS 3 Xrotation Yrotation Zrotation
												End Site
												{
													OFFSET 0.000023 6.780014 0.000000
												}
											}
										}
									}
								}
							}
						}
					}
				}
				JOINT RightShoulder
				{
					OFFSET -12.896300 26.716293 -4.548400
					CHANNELS 3 Xrotation Yrotation Zrotation
					JOINT RightArm
					{
						OFFSET -19.027000 -4.857010 -1.718400
						CHANNELS 3 Xrotation Yrotation Zrotation
						JOINT RightForeArm
						{
							OFFSET -24.179897 0.000000 0.000000
							CHANNELS 3 Xrotation Yrotation Zrotation
							JOINT RightHand
							{
								OFFSET -27.156403 0.000000 0.000000
								CHANNELS 3 Xrotation Yrotation Zrotation
								JOINT RightHandThumb1
								{
									OFFSET -6.591202 -4.852203 5.988100
									CHANNELS 3 Xrotation Yrotation Zrotation
									JOINT RightHandThumb2
									{
										OFFSET -3.818176 -2.204422 2.204423
										CHANNELS 3 Xrotation Yrotation Zrotation
										JOINT RightHandThumb3
										{
											OFFSET -3.252098 -1.877594 1.877601
											CHANNELS 3 Xrotation Yrotation Zrotation
											JOINT RightHandThumb4
											{
												OFFSET -5.251778 -3.032120 3.032117
												CHANNELS 3 Xrotation Yrotation Zrotation
												End Site
												{
													OFFSET -0.000023 6.780014 0.000000
												}
											}
										}
									}
								}
								JOINT RightHandIndex1
								{
									OFFSET -16.029404 0.000000 0.000000
									CHANNELS 3 Xrotation Yrotation Zrotation
									JOINT RightHandIndex2
									{
										OFFSET -5.213303 0.000000 0.000000
										CHANNELS 3 Xrotation Yrotation Zrotation
										JOINT RightHandIndex3
										{
											OFFSET -6.386528 0.000000 0.000000
											CHANNELS 3 Xrotation Yrotation Zrotation
											JOINT RightHandIndex4
											{
												OFFSET -5.189026 0.000000 0.000000
												CHANNELS 3 Xrotation Yrotation Zrotation
												End Site
												{
													OFFSET 0.236702 5.183624 0.001972
												}
											}
										}
									}
								}
							}
						}
					}
				}
			}
		}
	}
	JOINT LeftUpLeg
	{
		OFFSET 14.073000 -7.904099 -1.463000
		CHANNELS 3 Xrotation Yrotation Zrotation
		JOINT LeftLeg
		{
			OFFSET -0.109806 -34.073280 4.093200
			CHANNELS 3 Xrotation Yrotation Zrotation
			JOINT LeftFoot
			{
				OFFSET 0.109806 -29.899420 -6.319000
				CHANNELS 3 Xrotation Yrotation Zrotation
				JOINT LeftToeBase
				{
					OFFSET 1.551100 -14.988700 20.535801
					CHANNELS 3 Xrotation Yrotation Zrotation
					JOINT LeftToe_End
					{
						OFFSET 0.221200 0.570800 13.248301
						CHANNELS 3 Xrotation Yrotation Zrotation
						End Site
						{
							OFFSET 0.000000 13.262435 0.000000
						}
					}
				}
			}
		}
	}
	JOINT RightUpLeg
	{
		OFFSET -13.839300 -7.904099 -1.463000
		CHANNELS 3 Xrotation Yrotation Zrotation
		JOINT RightLeg
		{
			OFFSET 0.109694 -34.073219 4.093300
			CHANNELS 3 Xrotation Yrotation Zrotation
			JOINT RightFoot
			{
				OFFSET -0.109694 -29.899384 -6.319200
				CHANNELS 3 Xrotation Yrotation Zrotation
				JOINT RightToeBase
				{
					OFFSET -1.551100 -14.988700 20.535801
					CHANNELS 3 Xrotation Yrotation Zrotation
					JOINT RightToe_End
					{
						OFFSET -0.221200 0.570900 13.248299
						CHANNELS 3 Xrotation Yrotation Zrotation
						End Site
						{
							OFFSET 0.000000 13.262440 0.000000
						}
					}
				}
			}
		}
	}
}
MOTION
Frames: 6
Frame Time: 0.033333
11.499591 76.141304 77.947990 14.920868 48.791644 1.006109 5.948118 4.942373 5.392639 0.996637 0.797699 0.279855 0.999431 0.802601 0.276184 -5.890517 -10.304037 1.767260 -5.730902 -49.243031 7.655582 -0.000000 0.000000 -0.000000 0.147592 -4.380984 -8.388014 30.952167 -19.035292 -44.476314 -0.000003 -35.075890 0.000005 -0.379708 -3.720195 -13.373597 0.085426 2.863637 -4.439215 0.374809 2.063636 -20.586376 0.008498 0.315636 -3.081565 0.000000 0.000001 -0.000003 -5.615750 -6.353712 4.905897 6.092320 13.489099 3.203504 -7.324525 -0.384659 13.138079 -0.000002 -0.000000 -0.000002 11.369657 6.406440 -26.851511 -69.216591 11.613377 13.954630 0.000009 13.633675 -0.000011 41.357082 -5.740378 3.314793 -3.343050 -1.213254 3.285438 23.902910 -32.757570 11.434673 18.628603 -34.488613 -3.730675 -0.000002 0.000000 -0.000001 0.061043 -2.633338 3.715359 -0.000000 -0.000003 -0.000000 -0.000001 0.000762 -0.009292 0.000000 -0.000000 -0.000000 -13.128650 2.459170 13.326105 44.825186 3.666600 14.144345 1.272882 -7.675475 -7.166605 -38.550984 2.722631 -12.287305 -0.000001 -0.000000 -0.000001 -52.398869 -0.934597 -23.391808 59.451182 -2.965089 -6.290978 -17.760266 -3.179351 11.746183 -2.349071 -0.000001 0.000001 -0.000000 0.000002 0.000000 
11.462423 76.122932 77.997643 15.517162 48.798690 0.593286 5.890403 4.904888 5.358812 0.991221 0.792345 0.265632 0.994136 0.796030 0.262006 -5.684759 -10.332953 2.065913 -6.620018 -49.106540 6.957077 -0.000000 0.000001 -0.000000 0.150427 -4.337994 -8.168403 31.111382 -19.353140 -45.155825 0.000002 -35.167893 0.000019 0.409867 -3.106983 -13.871389 0.085575 2.865324 -4.455476 0.374850 2.063747 -20.587502 0.008698 0.319495 -3.119335 0.000000 -0.000000 0.000001 -5.610577 -6.355028 4.910221 6.091901 13.499641 3.227120 -7.324913 -0.384674 13.138353 0.000001 0.000001 0.000001 11.629962 5.681283 -27.391577 -70.066403 11.685189 14.747371 -0.000013 12.704078 -0.000001 41.290382 -5.530593 2.996631 -3.574466 -0.781250 2.919890 22.800082 -32.024144 10.643754 17.467048 -33.130171 -4.582136 -0.000001 -0.000002 -0.000002 0.061142 -2.634613 3.730869 -0.000001 0.000002 0.000028 -0.000000 0.001047 -0.012962 0.000000 -0.000000 -0.000000 -13.409653 2.349293 13.366482 44.585764 3.397277 14.195569 1.123452 -7.721273 -7.538648 -38.141965 2.762067 -12.457565 -0.000000 0.000003 -0.000001 -52.793735 -0.805501 -23.292685 59.467670 -3.118053 -6.288173 -17.733512 -3.180068 11.759392 -2.349079 -0.000011 -0.000001 -0.000000 -0.000001 -0.000000 
11.425281 76.084717 78.023804 16.065658 48.716638 0.292629 5.804689 4.930501 5.321427 0.981182 0.790744 0.260341 0.984137 0.791930 0.257984 -5.419480 -10.329944 2.237254 -7.314839 -48.989460 6.399207 -0.000000 -0.000000 -0.000000 0.151647 -4.378713 -8.054210 31.479536 -19.651439 -45.655822 0.000005 -35.215164 0.000016 1.276709 -2.929825 -14.525444 0.085721 2.867006 -4.471797 0.374891 2.063855 -20.588617 0.008913 0.323366 -3.157162 -0.000000 -0.000000 -0.000001 -5.605408 -6.356341 4.914542 6.091485 13.510292 3.250814 -7.325298 -0.384697 13.138568 -0.000001 0.000002 0.000001 11.746131 4.932817 -27.815218 -70.850946 12.058157 15.613676 0.000003 11.852581 -0.000006 41.516478 -5.136128 2.736365 -3.835452 -0.276427 2.497622 21.553697 -31.149771 9.744616 16.194353 -31.529557 -5.517161 0.000003 0.000001 -0.000001 0.061238 -2.635890 3.746526 0.000000 -0.000005 -0.000000 -0.000001 0.001288 -0.015785 -0.000000 -0.000000 -0.000000 -13.669741 2.196493 13.273831 44.468964 3.083824 14.236362 1.103933 -7.706817 -7.948623 -37.706783 2.908537 -12.895146 -0.000000 -0.000001 -0.000002 -53.265497 -0.602741 -23.234922 59.547707 -3.170196 -6.286565 -17.689017 -3.173566 11.737958 -2.349082 -0.000015 0.000003 0.000000 -0.000001 -0.000000 
11.391130 76.060265 78.028427 16.445403 48.601731 0.152813 5.810954 4.960431 5.288271 0.980868 0.790912 0.256610 0.983851 0.789471 0.254688 -5.327084 -10.294423 2.272133 -7.664702 -48.809399 6.112440 -0.000002 0.000000 0.000001 0.155838 -4.300158 -8.038075 31.805490 -19.844889 -45.923579 -0.000007 -35.264673 -0.000008 2.222377 -2.912418 -15.169348 0.085865 2.868671 -4.488167 0.374936 2.063956 -20.589732 0.009119 0.327245 -3.195024 -0.000001 0.000004 0.000000 -5.600249 -6.357669 4.918903 6.091068 13.521070 3.274535 -7.325728 -0.384855 13.139193 0.000000 -0.000000 0.000002 11.600552 4.090027 -27.999985 -71.513044 12.967561 16.625025 -0.000005 10.890307 0.000007 41.892296 -4.666245 2.417693 -4.088275 0.232005 2.077440 20.343404 -30.251359 8.865692 14.998826 -29.905290 -6.398915 0.000001 -0.000002 0.000002 0.061336 -2.637174 3.762332 -0.000001 -0.000002 0.000000 -0.000000 0.001410 -0.017361 0.000000 -0.000001 -0.000000 -13.795392 2.029627 13.114791 44.343391 2.666560 14.313235 1.200930 -7.791572 -8.509767 -37.148156 3.181584 -13.655958 -0.000001 0.000000 0.000001 -53.654274 -0.404754 -23.222710 59.608010 -3.144960 -6.285912 -17.621468 -3.161237 11.694446 -2.349083 -0.000023 -0.000002 0.000000 -0.000001 0.000000 
11.390676 76.033325 77.962151 16.709505 48.478145 0.051778 5.935665 4.966005 5.288519 1.001045 0.792778 0.250615 1.004077 0.789987 0.252400 -5.458650 -10.239095 2.244404 -7.796642 -48.535054 6.063689 -0.000002 -0.000000 0.000000 0.160239 -4.124275 -8.108620 32.007684 -19.891130 -45.993746 0.000015 -35.440841 0.000007 3.206748 -2.989071 -15.483250 0.086007 2.870331 -4.504582 0.374974 2.064067 -20.590879 0.009341 0.331128 -3.232971 -0.000000 -0.000004 -0.000000 -5.595111 -6.359021 4.923367 6.090686 13.531959 3.298217 -7.326156 -0.385029 13.139783 0.000000 0.000001 0.000001 11.117379 3.089179 -27.856406 -72.056228 14.505722 17.750951 -0.000004 9.600594 -0.000001 41.950025 -4.335697 1.746607 -4.333093 0.744156 1.659005 19.168403 -29.329061 8.006308 13.704102 -28.326108 -7.201918 -0.000000 0.000001 -0.000001 0.061434 -2.638453 3.778291 0.000000 -0.000002 0.000000 0.000000 0.001484 -0.018441 0.000000 -0.000000 0.000000 -13.919140 1.834884 12.973665 44.335796 2.080268 14.464942 1.271724 -7.888752 -9.344767 -36.327696 3.575147 -14.716782 -0.000000 0.000000 -0.000001 -53.968589 -0.221773 -23.238255 59.618918 -3.076406 -6.284519 -17.491291 -3.152449 11.695591 -2.349076 -0.000012 -0.000003 0.000000 0.000001 -0.000000 
11.449068 75.967079 77.753326 16.864782 48.198278 -0.034283 6.171426 5.106683 5.356165 1.044394 0.812904 0.249508 1.047803 0.809349 0.248815 -5.604014 -10.186637 2.250427 -8.107787 -48.251779 5.973943 -0.000000 0.000000 0.000000 0.170204 -3.896330 -8.278844 31.947206 -19.908176 -46.004039 -0.000006 -35.686970 0.000006 4.122990 -3.614103 -15.390158 0.086152 2.871982 -4.521024 0.375022 2.064173 -20.592030 0.009559 0.335008 -3.270937 0.000000 0.000001 -0.000000 -5.590129 -6.360909 4.927640 6.090295 13.542941 3.321919 -7.326606 -0.385214 13.140417 0.000001 0.000001 -0.000002 10.364022 1.936461 -27.432026 -72.435884 15.794620 18.755006 0.000003 9.249300 -0.000007 41.438525 -4.095937 0.405812 -4.570228 1.260685 1.241653 18.026990 -28.382214 7.165108 12.091095 -26.861951 -7.905904 -0.000000 -0.000002 0.000001 0.061533 -2.639737 3.794400 0.000001 0.000007 0.000002 -0.000000 0.001539 -0.018880 0.000000 -0.000000 0.000000 -14.071098 1.560342 12.846496 44.766907 1.347407 14.470295 1.120346 -7.532514 -10.321641 -35.358281 3.996422 -15.828738 0.000000 0.000000 0.000001 -54.336129 -0.012748 -23.244124 59.592629 -2.843089 -6.284080 -17.211682 -3.134038 11.723668 -2.349088 -0.000010 0.000003 0.000000 -0.000001 -0.000000 
